<svg width="22" height="20" viewBox="0 0 22 20" fill="none" xmlns="http://www.w3.org/2000/svg">
<path d="M9.4786 0.883743C9.85313 0.527024 10.447 0.541086 10.8038 0.916086C11.1609 1.29109 11.1459 1.88452 10.7714 2.24171L3.57985 9.06249H20.1696C20.6871 9.06249 21.1071 9.48249 21.1071 9.99999C21.1071 10.5175 20.6871 10.9375 20.1696 10.9375H3.60985L10.7714 17.7587C11.1464 18.1159 11.1609 18.7094 10.8038 19.0844C10.6195 19.2775 10.3725 19.375 10.125 19.375C9.8925 19.375 9.66 19.2892 9.4786 19.1162L1.29938 11.3256C0.945004 10.9717 0.750002 10.5011 0.750002 9.99999C0.750002 9.4989 0.945004 9.02827 1.31578 8.65843L9.4786 0.883743Z" fill="black"/>
</svg>
