<svg width="32" height="32" viewBox="0 0 32 32" fill="none" xmlns="http://www.w3.org/2000/svg">
<path d="M16 8.93312C13.7448 8.93312 11.9102 10.7679 11.9102 13.023C11.9102 15.2781 13.7448 17.1129 16 17.1129C18.2552 17.1129 20.0899 15.2781 20.0899 13.023C20.0899 10.7679 18.2552 8.93312 16 8.93312Z" fill="white"/>
<path d="M25.5703 3.96412C23.014 1.40781 19.6152 0 16.0001 0C12.385 0 8.98614 1.40781 6.42989 3.96412C3.87351 6.5205 2.4657 9.91925 2.4657 13.5343C2.4657 20.8476 9.3807 26.9304 13.0957 30.1984C13.6119 30.6525 14.0577 31.0446 14.4128 31.3763C14.8578 31.7922 15.4288 32 16 32C16.5711 32 17.1423 31.7921 17.5873 31.3764C17.9425 31.0447 18.3882 30.6526 18.9044 30.1984C22.6194 26.9305 29.5344 20.8477 29.5344 13.5344C29.5344 9.91925 28.1266 6.5205 25.5703 3.96412ZM16.0001 18.9873C12.7113 18.9873 10.0357 16.3118 10.0357 13.0229C10.0357 9.73413 12.7113 7.05856 16.0001 7.05856C19.2889 7.05856 21.9645 9.73413 21.9645 13.0229C21.9645 16.3118 19.2888 18.9873 16.0001 18.9873Z" fill="white"/>
</svg>
