<svg width="33" height="33" viewBox="0 0 33 33" fill="none" xmlns="http://www.w3.org/2000/svg">
<g clip-path="url(#clip0)">
<path d="M25.0888 21.8302C24.0107 20.7658 22.6648 20.7658 21.5935 21.8302C20.7764 22.6405 19.9592 23.4508 19.1557 24.2748C18.936 24.5014 18.7506 24.5495 18.4828 24.3984C17.954 24.11 17.3909 23.8765 16.8828 23.5606C14.5137 22.0705 12.5291 20.1546 10.7711 17.9984C9.89904 16.9271 9.12307 15.7803 8.58058 14.4893C8.47071 14.2284 8.49131 14.0567 8.70419 13.8439C9.52136 13.0541 10.3179 12.2438 11.1214 11.4335C12.2407 10.3074 12.2407 8.98889 11.1145 7.85584C10.4759 7.21034 9.83724 6.57858 9.19861 5.93308C8.53938 5.27385 7.88701 4.60775 7.22092 3.95539C6.1428 2.90474 4.79687 2.90474 3.72562 3.96226C2.90158 4.77256 2.11188 5.60347 1.2741 6.40004C0.498134 7.1348 0.106716 8.03438 0.0243119 9.08503C-0.106161 10.7949 0.312725 12.4086 0.903286 13.9812C2.11188 17.2361 3.95223 20.1271 6.184 22.7778C9.19861 26.3624 12.7969 29.1984 17.0064 31.2448C18.9017 32.165 20.8656 32.8723 23.0013 32.989C24.4708 33.0714 25.7481 32.7006 26.7712 31.5538C27.4717 30.771 28.2614 30.0568 29.003 29.3083C30.1017 28.1958 30.1086 26.8499 29.0167 25.7512C27.712 24.4396 26.4004 23.1349 25.0888 21.8302Z" fill="white"/>
<path d="M23.7772 16.3572L26.3112 15.9245C25.9129 13.5966 24.8141 11.4885 23.1455 9.81292C21.3807 8.0481 19.1489 6.93565 16.6905 6.5923L16.3334 9.13995C18.2356 9.40777 19.9661 10.2661 21.3326 11.6327C22.6236 12.9237 23.4682 14.558 23.7772 16.3572Z" fill="white"/>
<path d="M27.7394 5.34252C24.8141 2.41718 21.1128 0.56996 17.0269 0L16.6699 2.54765C20.1995 3.04208 23.3995 4.64208 25.9266 7.16227C28.3231 9.55885 29.8957 12.5872 30.4656 15.9177L32.9996 15.4851C32.3335 11.6258 30.5137 8.12365 27.7394 5.34252Z" fill="white"/>
</g>
<defs>
<clipPath id="clip0">
<rect width="33" height="33" fill="white"/>
</clipPath>
</defs>
</svg>
