<svg width="36" height="35" viewBox="0 0 36 35" fill="none" xmlns="http://www.w3.org/2000/svg">
<path d="M25.0768 8.71773C24.6949 8.44047 24.2381 8.26711 23.7465 8.22062C22.5208 6.90266 20.8108 6.63961 19.8399 6.60953C20.0936 5.59016 20.6308 4.68836 21.4245 3.60773L21.8329 3.05211C21.9555 2.88531 21.9718 2.66656 21.8756 2.48391C21.7789 2.3018 21.5859 2.1875 21.375 2.1875H18C17.8357 2.1875 17.6799 2.2575 17.5731 2.37891C16.3924 3.7182 15.6195 5.30359 15.2826 6.99289C13.9652 7.15531 13.122 7.84273 12.7468 8.22609C12.6703 8.21898 12.5966 8.20312 12.5184 8.20312C11.9407 8.20312 11.3962 8.38742 10.9434 8.71391C5.17894 8.85992 2.25 12.3572 2.25 19.1297C2.25 23.3527 3.27881 26.3047 5.30831 27.9032C6.354 28.7273 7.63931 29.1463 9.08606 29.1463C9.54394 29.1463 10.0209 29.0943 10.5086 29.0095C11.187 29.5657 12.0471 29.8561 12.9274 29.8561C13.5996 29.8561 14.2824 29.6882 14.9018 29.3453L15.2668 29.143C15.7871 29.7117 16.4852 30.0781 17.4375 30.0781H18.5625C19.4794 30.0781 20.1504 29.7194 20.6533 29.202L21.1269 29.3978C21.7249 29.7101 22.3802 29.8638 23.0276 29.8638C23.9152 29.8638 24.7877 29.5739 25.4818 29.0161C25.9369 29.0609 26.3739 29.0883 26.784 29.0883C28.6324 29.0883 30.0347 28.6311 31.1271 27.6866C32.8922 26.1598 33.75 23.3609 33.75 19.1297C33.75 12.7356 30.6692 9.04969 25.0768 8.71773ZM22.3419 8.46125C21.8278 8.69969 21.4099 9.0918 21.1404 9.57797C20.7793 9.05023 20.3079 8.63133 19.6909 8.40055C19.6785 8.15773 19.6774 7.92367 19.6886 7.7C20.3001 7.70656 21.4082 7.82305 22.3419 8.46125ZM18.2632 3.28125H20.286C19.1357 4.89891 18.5079 6.26555 18.5546 8.20312H17.4375C16.9768 8.20312 16.5814 8.29391 16.2304 8.44211C16.3311 6.55758 17.0274 4.76219 18.2632 3.28125ZM15.1267 8.13203C15.0958 8.51977 15.0874 8.91078 15.1031 9.30453C15.0238 9.40242 14.9479 9.50359 14.8776 9.61078C14.6649 9.21375 14.3589 8.87359 13.9759 8.62914C14.2515 8.43555 14.6351 8.23867 15.1267 8.13203ZM6.0165 27.0539C4.2885 25.6922 3.375 22.9523 3.375 19.1297C3.375 13.3837 5.55413 10.3469 10.0131 9.86891C7.146 15.301 6.86588 21.6322 9.26156 27.2874L9.30544 27.3913C9.39881 27.6112 9.51413 27.8195 9.64237 28.0208C8.22375 28.1373 6.98175 27.8152 6.0165 27.0539ZM14.3443 28.3959C13.2677 28.9926 11.9334 28.8542 11.079 28.0416C10.7623 27.7359 10.5159 27.3777 10.3449 26.9752L10.3011 26.8713C7.99819 21.4348 8.30025 15.3355 11.1538 10.0964C11.4221 9.60313 11.9447 9.29688 12.5184 9.29688C13.3701 9.29688 14.0625 9.97008 14.0625 10.798V11.5806C13.8465 12.4261 13.7323 13.2934 13.6406 14.0049C13.6125 14.2231 13.5861 14.4266 13.5591 14.6109C13.4117 15.6182 13.3127 16.6441 13.2649 17.6591C13.1681 19.6952 13.2722 21.7498 13.5737 23.7661C13.5984 23.9312 13.6226 24.1106 13.6491 24.3009C13.8066 25.4538 14.0254 27.0173 14.6464 28.2286L14.3443 28.3959ZM18.5625 28.9844H17.4375C15.5807 28.9844 15.0986 26.5995 14.7639 24.156C14.7369 23.9613 14.7116 23.7781 14.6863 23.6091C14.3955 21.6612 14.2954 19.6766 14.3888 17.7095C14.4349 16.7289 14.5305 15.7385 14.6734 14.7645C14.7009 14.5753 14.7285 14.3653 14.7566 14.1405C15.0727 11.6895 15.5402 9.29688 17.4375 9.29688H18.5625C20.5734 9.29688 21.0285 11.8896 21.2968 14.3205L21.3114 14.4545C21.4875 16.0344 21.672 17.8697 21.6405 19.6695C21.6017 21.8914 21.3969 23.8377 21.0167 25.6195C20.6437 27.3667 20.088 28.9844 18.5625 28.9844ZM21.6146 28.414L21.3114 28.2877C21.7778 27.4209 21.9904 26.4414 22.1186 25.8415C22.5135 23.992 22.725 21.9795 22.7655 19.688C22.7981 17.8254 22.6091 15.9491 22.4297 14.3369L22.4151 14.204C22.3284 13.4192 22.2137 12.3812 21.9369 11.3898V10.798C21.9375 9.97008 22.6299 9.29688 23.4962 9.29688C24.0604 9.29688 24.5751 9.5982 24.8394 10.0833C27.6879 15.3141 27.9923 21.4545 25.6759 26.9248C25.6753 26.9259 25.6545 26.9746 25.6539 26.9757C25.4835 27.3777 25.2371 27.7364 24.9013 28.0602C24.0744 28.8455 22.7413 28.9997 21.6146 28.414ZM30.3789 26.8696C29.4317 27.6883 28.1436 28.0459 26.3829 27.982C26.4994 27.7944 26.6062 27.6002 26.6929 27.3957C26.6934 27.3946 26.7143 27.3459 26.7148 27.3448C29.1111 21.6863 28.8439 15.3557 26.0061 9.91047C30.3958 10.5476 32.625 13.6385 32.625 19.1297C32.625 23.03 31.8898 25.562 30.3789 26.8696Z" fill="#303030"/>
</svg>
