<svg width="33" height="35" viewBox="0 0 33 35" fill="none" xmlns="http://www.w3.org/2000/svg">
<path d="M23.2031 20.5122V14.7656H22.1719V20.2885C21.9177 20.2563 21.6609 20.2344 21.3984 20.2344C20.9602 20.2344 20.5301 20.2863 20.1094 20.3771V18.0469H21.1406V16.9531H20.1094V15.8594H21.1406V14.7656H20.1094V13.6719H21.1406V12.5781H20.1094V11.4844H22.161C22.1652 11.6107 22.1719 11.7365 22.1719 11.8628V13.125H23.2031V11.8628C23.2031 8.02703 21.4567 4.39031 18.5316 2.1339C17.6251 1.43445 16.4056 1.43445 15.4992 2.1339C12.5745 4.39031 10.8281 8.02758 10.8281 11.8628V17.0909C7.88958 17.7259 5.67188 20.4876 5.67188 23.7891V25.7031C5.67188 25.9356 5.81058 26.1423 6.01683 26.2188C6.22359 26.2965 6.45356 26.2259 6.5902 26.0449L9.63548 22.0073C9.68395 21.9434 9.73809 21.8865 9.79688 21.8367V26.6673C9.79688 30.6589 12.8587 33.9063 16.6222 33.9063H16.8929C20.4198 33.9063 23.3305 31.0538 23.6827 27.4099C24.9279 27.8939 26.0592 28.7252 26.9249 29.8731C27.0255 30.0048 27.1745 30.0781 27.3281 30.0781C27.3848 30.0781 27.4431 30.0677 27.4988 30.047C27.705 29.9704 27.8438 29.7637 27.8438 29.5313V27.0703C27.8438 23.9657 25.8808 21.3423 23.2031 20.5122ZM19.0781 20.6992C18.7358 20.8409 18.4042 21.0137 18.0855 21.2182C17.9334 20.8234 17.7468 20.4477 17.5312 20.0933V18.0469H19.0781V20.6992ZM11.8702 11.4844H13.9219V12.5781H11.8594V11.8628C11.8594 11.7365 11.8661 11.6107 11.8702 11.4844ZM14.9531 10.3906V9.29687H16.5V10.3906H14.9531ZM16.5 11.4844V12.5781H14.9531V11.4844H16.5ZM14.9531 8.20312V7.10937H16.5V8.20312H14.9531ZM17.5312 9.29687H19.0781V10.3906H17.5312V9.29687ZM17.5312 8.20312V7.10937H19.0781V8.20312H17.5312ZM20.1094 7.10937H21.138C21.3005 7.46539 21.4454 7.83016 21.5707 8.20312H20.1094V7.10937ZM20.1094 6.01562V5.30797C20.2708 5.53711 20.4208 5.77445 20.5652 6.01562H20.1094ZM19.0781 6.01562H17.5312V4.92187H19.0781V6.01562ZM16.5 6.01562H14.9531V4.92187H16.5V6.01562ZM13.9219 6.01562H13.4661C13.6099 5.77445 13.76 5.53711 13.9219 5.30797V6.01562ZM13.9219 7.10937V8.20312H12.4606C12.5859 7.83016 12.7308 7.46539 12.8932 7.10937H13.9219ZM13.9219 9.29687V10.3906H11.9579C12.0053 10.022 12.0672 9.65617 12.1497 9.29687H13.9219ZM13.9219 13.6719V14.7656H11.8594V13.6719H13.9219ZM14.9531 13.6719H16.5V14.7656H14.9531V13.6719ZM16.5 15.8594V16.9531H14.9531V15.8594H16.5ZM16.5 18.0469V18.7912C16.2216 18.5166 15.9225 18.2667 15.6018 18.0469H16.5ZM19.0781 16.9531H17.5312V15.8594H19.0781V16.9531ZM19.0781 14.7656H17.5312V13.6719H19.0781V14.7656ZM19.0781 12.5781H17.5312V11.4844H19.0781V12.5781ZM20.1094 10.3906V9.29687H21.8821C21.9646 9.65617 22.026 10.022 22.0739 10.3906H20.1094ZM18.8538 3.82812H17.5312V2.80109C17.6689 2.85304 17.8025 2.92359 17.9257 3.0182C18.2516 3.26976 18.561 3.54101 18.8538 3.82812ZM16.1055 3.01875C16.2288 2.92359 16.3623 2.85304 16.5 2.80109V3.82812H15.1774C15.4703 3.54101 15.7797 3.26976 16.1055 3.01875ZM11.8594 15.8594H13.9219V17.2309C13.3485 17.0532 12.7442 16.9531 12.1172 16.9531C12.03 16.9531 11.9455 16.9635 11.8594 16.9668V15.8594ZM8.83008 21.3238L6.70312 24.144V23.7891C6.70312 20.6227 9.13172 18.0469 12.1172 18.0469C15.1027 18.0469 17.5312 20.6227 17.5312 23.7891V27.1173L11.8991 21.1438C11.5113 20.7326 10.9854 20.5029 10.4404 20.5029C10.4027 20.5029 10.3651 20.504 10.3264 20.5062C9.74222 20.5412 9.19617 20.8387 8.83008 21.3238ZM10.8281 26.6673V21.6781C10.9539 21.7317 11.07 21.8105 11.17 21.9171L17.6823 28.8241C18.0938 29.2606 18.3052 29.8638 18.2619 30.479C18.2186 31.0942 17.9252 31.6575 17.457 32.0245L16.6665 32.6441C14.8727 30.771 13.7146 28.2871 13.4021 25.6353L12.3791 25.7709C12.6782 28.3079 13.6893 30.7016 15.2517 32.6315C12.7174 31.9758 10.8281 29.5542 10.8281 26.6673ZM18.4057 32.5927C18.9172 32.0523 19.2359 31.3354 19.29 30.561C19.3499 29.7079 19.0843 28.8723 18.5625 28.2297V27.4017C19.9011 26.8816 21.3232 26.7958 22.6669 27.1004C22.4921 29.7407 20.7415 31.9211 18.4057 32.5927ZM26.8125 28.1537C24.5963 26.0247 21.435 25.2798 18.5625 26.2434V23.7891C18.5625 23.2766 18.5048 22.779 18.4037 22.2983C19.2952 21.6645 20.3228 21.3281 21.3984 21.3281C24.3839 21.3281 26.8125 23.9039 26.8125 27.0703V28.1537Z" fill="#303030"/>
</svg>
