<svg width="36" height="35" viewBox="0 0 36 35" fill="none" xmlns="http://www.w3.org/2000/svg">
<path d="M8.43748 26.769V33.9062H9.56248V26.769C12.6304 26.4988 15.0525 24.0428 15.1751 21.0197L16.7102 19.5273L15.9148 18.754L14.3797 20.2464C14.1491 20.2552 13.9224 20.2765 13.6991 20.3093C14.5744 19.3145 15.1183 18.0403 15.1751 16.6447L16.7102 15.1523L15.9148 14.379L14.3797 15.8714C14.1491 15.8802 13.9224 15.9015 13.6991 15.9343C14.5744 14.9395 15.1183 13.6653 15.1751 12.2697L16.7102 10.7773L15.9148 10.004L14.3797 11.4964C14.1491 11.5052 13.9224 11.5265 13.6991 11.5593C14.5744 10.5645 15.1183 9.29031 15.1751 7.89469L16.7102 6.40227L15.9148 5.62898L14.3797 7.12141C13.0376 7.17281 11.8052 7.63875 10.814 8.39563C11.6623 6.86711 10.0682 3.97633 9.56248 3.13195V1.09375H8.43748V3.13195C7.9318 3.97633 6.33767 6.86711 7.18592 8.39563C6.1948 7.63875 4.96236 7.17281 3.62023 7.12141L2.08517 5.62898L1.28979 6.40227L2.82486 7.89469C2.88167 9.29031 3.42505 10.5645 4.30086 11.5593C4.07754 11.5265 3.85086 11.5052 3.62023 11.4964L2.08517 10.004L1.28979 10.7773L2.82486 12.2697C2.88167 13.6653 3.42505 14.9395 4.30086 15.9343C4.07754 15.9015 3.85086 15.8802 3.62023 15.8714L2.08517 14.379L1.28979 15.1523L2.82486 16.6447C2.88167 18.0403 3.42505 19.3145 4.30086 20.3093C4.07754 20.2765 3.85086 20.2552 3.62023 20.2464L2.08517 18.754L1.28979 19.5273L2.82486 21.0197C2.94748 24.0428 5.36961 26.4988 8.43748 26.769ZM8.99998 10.6334C8.73336 10.0669 8.37898 9.54898 7.95317 9.09234C8.22148 9.2143 8.56067 9.29688 8.99998 9.29688C9.4393 9.29688 9.77848 9.2143 10.0468 9.09289C9.62098 9.54898 9.26661 10.0669 8.99998 10.6334ZM8.99998 13.6719C9.31555 13.6719 9.62267 13.6413 9.92586 13.597C9.55292 14.0208 9.2413 14.4955 8.99998 15.0084C8.75867 14.4955 8.44705 14.0208 8.07411 13.597C8.3773 13.6413 8.68442 13.6719 8.99998 13.6719ZM8.99998 18.0469C9.31555 18.0469 9.62267 18.0162 9.92586 17.972C9.55292 18.3958 9.2413 18.8705 8.99998 19.3834C8.75867 18.8705 8.44705 18.3958 8.07411 17.972C8.3773 18.0162 8.68442 18.0469 8.99998 18.0469ZM8.99998 22.4219C9.31555 22.4219 9.62267 22.3912 9.92586 22.347C9.55292 22.7708 9.2413 23.2455 8.99998 23.7584C8.75867 23.2455 8.44705 22.7708 8.07411 22.347C8.3773 22.3912 8.68442 22.4219 8.99998 22.4219ZM9.59792 25.6692C9.87073 23.4188 11.7129 21.6278 14.0276 21.3626C13.7542 23.613 11.9126 25.4034 9.59792 25.6692ZM9.59792 21.2942C9.87073 19.0438 11.7129 17.2528 14.0276 16.9876C13.7542 19.238 11.9126 21.0284 9.59792 21.2942ZM9.59792 16.9192C9.87073 14.6688 11.7129 12.8778 14.0276 12.6126C13.7542 14.863 11.9126 16.6534 9.59792 16.9192ZM14.0276 8.23758C13.7548 10.488 11.9126 12.279 9.59792 12.5442C9.87073 10.2933 11.7124 8.50281 14.0276 8.23758ZM8.99998 4.42531C9.64911 5.70008 10.188 7.25813 9.82123 7.88758C9.77567 7.96523 9.6373 8.20312 8.99998 8.20312C8.36267 8.20312 8.2243 7.96523 8.17873 7.88758C7.81198 7.25758 8.35086 5.70008 8.99998 4.42531ZM8.40261 12.5442C6.08792 12.279 4.24573 10.488 3.97292 8.23758C6.28761 8.50281 8.12923 10.2933 8.40261 12.5442ZM8.40261 16.9192C6.08792 16.654 4.24573 14.863 3.97292 12.6126C6.28761 12.8778 8.12923 14.6683 8.40261 16.9192ZM8.40261 21.2942C6.08792 21.029 4.24573 19.238 3.97292 16.9876C6.28761 17.2528 8.12923 19.0433 8.40261 21.2942ZM8.40261 25.6692C6.08792 25.404 4.24573 23.613 3.97292 21.3626C6.28761 21.6278 8.12923 23.4183 8.40261 25.6692Z" fill="#303030"/>
<path d="M33.1751 7.89469L34.7102 6.40227L33.9148 5.62898L32.3797 7.12141C31.0376 7.17281 29.8052 7.63875 28.814 8.39563C29.6623 6.86711 28.0682 3.97633 27.5625 3.13195V1.09375H26.4375V3.13195C25.9318 3.97633 24.3377 6.86711 25.1859 8.39563C24.1948 7.63875 22.9624 7.17281 21.6202 7.12141L20.0852 5.62898L19.2898 6.40227L20.8249 7.89469C20.8817 9.29031 21.425 10.5645 22.3009 11.5593C22.0775 11.5265 21.8509 11.5052 21.6202 11.4964L20.0852 10.004L19.2898 10.7773L20.8249 12.2697C20.8817 13.6653 21.425 14.9395 22.3009 15.9343C22.0775 15.9015 21.8509 15.8802 21.6202 15.8714L20.0852 14.379L19.2898 15.1523L20.8249 16.6447C20.8817 18.0403 21.425 19.3145 22.3009 20.3093C22.0775 20.2765 21.8509 20.2552 21.6202 20.2464L20.0852 18.754L19.2898 19.5273L20.8249 21.0197C20.9475 24.0428 23.3696 26.4988 26.4375 26.769V33.9062H27.5625V26.769C30.6304 26.4988 33.0525 24.0428 33.1751 21.0197L34.7102 19.5273L33.9148 18.754L32.3797 20.2464C32.1491 20.2552 31.9224 20.2765 31.6991 20.3093C32.5744 19.3145 33.1183 18.0403 33.1751 16.6447L34.7102 15.1523L33.9148 14.379L32.3797 15.8714C32.1491 15.8802 31.9224 15.9015 31.6991 15.9343C32.5744 14.9395 33.1183 13.6653 33.1751 12.2697L34.7102 10.7773L33.9148 10.004L32.3797 11.4964C32.1491 11.5052 31.9224 11.5265 31.6991 11.5593C32.5749 10.5645 33.1183 9.29031 33.1751 7.89469ZM27 22.4219C27.3155 22.4219 27.6227 22.3912 27.9259 22.347C27.5529 22.7708 27.2413 23.2455 27 23.7584C26.7587 23.2455 26.447 22.7708 26.0741 22.347C26.3773 22.3912 26.6844 22.4219 27 22.4219ZM27 19.3834C26.7587 18.8705 26.447 18.3958 26.0741 17.972C26.3773 18.0162 26.6844 18.0469 27 18.0469C27.3155 18.0469 27.6227 18.0162 27.9259 17.972C27.5529 18.3958 27.2413 18.8705 27 19.3834ZM27 15.0084C26.7587 14.4955 26.447 14.0208 26.0741 13.597C26.3773 13.6413 26.6844 13.6719 27 13.6719C27.3155 13.6719 27.6227 13.6413 27.9259 13.597C27.5529 14.0208 27.2413 14.4955 27 15.0084ZM27 10.6334C26.7334 10.0669 26.379 9.54898 25.9532 9.09234C26.2215 9.2143 26.5607 9.29688 27 9.29688C27.4393 9.29688 27.7785 9.2143 28.0468 9.09289C27.621 9.54898 27.2666 10.0669 27 10.6334ZM32.0276 8.23758C31.7548 10.488 29.9126 12.279 27.5979 12.5442C27.8707 10.2933 29.7124 8.50281 32.0276 8.23758ZM27 4.42531C27.6491 5.70008 28.188 7.25813 27.8212 7.88758C27.7757 7.96523 27.6373 8.20312 27 8.20312C26.3627 8.20312 26.2243 7.96523 26.1787 7.88758C25.812 7.25758 26.3509 5.70008 27 4.42531ZM26.4026 12.5442C24.0879 12.279 22.2457 10.488 21.9729 8.23758C24.2876 8.50281 26.1292 10.2933 26.4026 12.5442ZM26.4026 16.9192C24.0879 16.654 22.2457 14.863 21.9729 12.6126C24.2876 12.8778 26.1292 14.6683 26.4026 16.9192ZM26.4026 21.2942C24.0879 21.029 22.2457 19.238 21.9729 16.9876C24.2876 17.2528 26.1292 19.0433 26.4026 21.2942ZM21.9729 21.3626C24.2876 21.6278 26.1298 23.4188 26.4026 25.6692C24.0874 25.4034 22.2457 23.613 21.9729 21.3626ZM27.5979 25.6692C27.8707 23.4188 29.7129 21.6278 32.0276 21.3626C31.7542 23.613 29.9126 25.4034 27.5979 25.6692ZM27.5979 21.2942C27.8707 19.0438 29.7129 17.2528 32.0276 16.9876C31.7542 19.238 29.9126 21.0284 27.5979 21.2942ZM27.5979 16.9192C27.8707 14.6688 29.7129 12.8778 32.0276 12.6126C31.7542 14.863 29.9126 16.6534 27.5979 16.9192Z" fill="#303030"/>
</svg>
