<svg width="430" height="233" viewBox="0 0 430 233" fill="none" xmlns="http://www.w3.org/2000/svg">
<g clip-path="url(#clip0)">
<g opacity="0.5">
<path opacity="0.5" d="M37.7078 177.01H14.9729L10.9016 183.431H0.160004L19.7481 153.32H32.9325L52.574 183.431H41.7754L37.7078 177.01ZM34.0703 171.245L26.3652 159.028L18.6068 171.245H34.0703Z" stroke="white" stroke-miterlimit="10"/>
<path opacity="0.5" d="M64.6739 159.452V165.563H95.0605V171.153H64.6739V177.288H95.0605V183.438H54.91V153.31H95.0605V159.452H64.6739Z" stroke="white" stroke-miterlimit="10"/>
<path opacity="0.5" d="M134.724 174.474L141.725 183.42H130.222L124.093 175.376H108.355V183.42H98.5878V153.31H128.43C137.056 153.31 142.973 157.654 142.973 164.368C142.973 169.269 139.826 172.883 134.724 174.474ZM108.355 168.88H125.717C128.647 168.88 133.206 168.88 133.206 164.364C133.206 159.848 128.647 159.809 125.717 159.809H108.355V168.88Z" stroke="white" stroke-miterlimit="10"/>
<path opacity="0.5" d="M145.633 168.32C145.633 158.332 152.794 152.878 169.505 152.878C186.217 152.878 193.378 158.386 193.378 168.32C193.378 178.255 186.164 183.852 169.505 183.852C152.847 183.852 145.633 178.358 145.633 168.32ZM183.614 168.32C183.614 162.213 179.703 159.374 169.505 159.374C159.308 159.374 155.382 162.17 155.382 168.32C155.382 174.47 159.343 177.356 169.491 177.356C179.639 177.356 183.614 174.474 183.614 168.32Z" stroke="white" stroke-miterlimit="10"/>
<path opacity="0.5" d="M219.861 167.3H243.95V183.431H236.736L236.302 178.701C232.718 181.797 227.022 183.862 218.936 183.862C204.937 183.862 196.365 178.355 196.365 168.374C196.365 158.393 204.937 152.889 220.565 152.889C235.758 152.889 243.353 157.576 243.95 165.063H234.023C233.479 162.784 230.876 159.384 220.565 159.384C207.867 159.384 206.132 164.935 206.132 168.548C206.132 172.162 207.91 177.884 220.565 177.884C230.005 177.884 233.806 174.613 234.023 172.333H219.861V167.3Z" stroke="white" stroke-miterlimit="10"/>
<path opacity="0.5" d="M286.817 176.931V183.427H247.751V153.31H257.515V176.931H286.817Z" stroke="white" stroke-miterlimit="10"/>
<path opacity="0.5" d="M288.229 168.32C288.229 158.332 295.39 152.878 312.101 152.878C328.813 152.878 335.974 158.382 335.974 168.32C335.974 178.258 328.76 183.852 312.101 183.852C295.443 183.852 288.229 178.358 288.229 168.32ZM326.21 168.32C326.21 162.213 322.299 159.374 312.101 159.374C301.904 159.374 297.993 162.17 297.993 168.32C297.993 174.47 301.954 177.356 312.101 177.356C322.249 177.356 326.21 174.474 326.21 168.32Z" stroke="white" stroke-miterlimit="10"/>
<path opacity="0.5" d="M386.6 174.645C386.6 179.721 382.859 183.42 374.23 183.42H339.505V153.31H372.928C381.554 153.31 384.214 156.791 384.214 161.225C384.214 163.33 383.147 165.395 381.227 167.075C384.484 168.666 386.6 171.16 386.6 174.645ZM349.265 165.138H369.447C372.054 165.138 374.425 165.138 374.425 161.999C374.425 158.86 372.039 158.899 369.38 158.899H349.272L349.265 165.138ZM376.829 174.26C376.829 171.074 374.439 171.074 371.851 171.074H349.272V177.441H371.844C374.446 177.441 376.836 177.441 376.836 174.26H376.829Z" stroke="white" stroke-miterlimit="10"/>
<path opacity="0.5" d="M399.571 159.452V165.563H429.954V171.153H399.571V177.288H429.954V183.438H389.803V153.31H429.954V159.452H399.571Z" stroke="white" stroke-miterlimit="10"/>
</g>
<g opacity="0.5">
<path opacity="0.5" d="M37.7078 73.2838H14.9729L10.9016 79.7047H0.160004L19.7481 49.5836H32.9325L52.574 79.694H41.7754L37.7078 73.2838ZM34.0703 67.5193L26.3652 55.291L18.6068 67.5193H34.0703Z" stroke="white" stroke-miterlimit="10"/>
<path opacity="0.5" d="M64.6739 55.7298V61.8403H95.0605V67.4194H64.6739V73.5299H95.0605V79.6904H54.91V49.5836H95.0605V55.7334L64.6739 55.7298Z" stroke="white" stroke-miterlimit="10"/>
<path opacity="0.5" d="M134.724 70.744L141.725 79.6904H130.222L124.093 71.6465H108.355V79.6904H98.5878V49.5836H128.43C137.056 49.5836 142.973 53.9284 142.973 60.6418C142.973 65.5395 139.826 69.153 134.724 70.744ZM108.355 65.1507H125.717C128.647 65.1507 133.206 65.1507 133.206 60.6346C133.206 56.1186 128.647 56.0758 125.717 56.0758H108.355V65.1507Z" stroke="white" stroke-miterlimit="10"/>
<path opacity="0.5" d="M145.633 64.5942C145.633 54.6061 152.794 49.1484 169.505 49.1484C186.217 49.1484 193.378 54.6561 193.378 64.5942C193.378 74.5323 186.164 80.1221 169.505 80.1221C152.847 80.1221 145.633 74.6144 145.633 64.5942ZM183.614 64.5942C183.614 58.4836 179.703 55.6442 169.505 55.6442C159.308 55.6442 155.382 58.4408 155.382 64.5942C155.382 70.7476 159.343 73.6263 169.491 73.6263C179.639 73.6263 183.614 70.744 183.614 64.5942Z" stroke="white" stroke-miterlimit="10"/>
<path opacity="0.5" d="M219.861 63.5597H243.95V79.6904H236.736L236.302 74.9604C232.718 78.0567 227.022 80.1221 218.936 80.1221C204.937 80.1221 196.365 74.6144 196.365 64.637C196.365 54.6596 204.937 49.1484 220.565 49.1484C235.758 49.1484 243.353 53.8392 243.95 61.3231H234.023C233.479 59.0437 230.876 55.6442 220.565 55.6442C207.867 55.6442 206.132 61.1947 206.132 64.8082C206.132 68.4218 207.91 74.1435 220.565 74.1435C230.005 74.1435 233.806 70.8724 234.023 68.593H219.861V63.5597Z" stroke="white" stroke-miterlimit="10"/>
<path opacity="0.5" d="M286.817 73.1946V79.6904H247.751V49.5836H257.515V73.1982L286.817 73.1946Z" stroke="white" stroke-miterlimit="10"/>
<path opacity="0.5" d="M288.229 64.5942C288.229 54.6061 295.39 49.1484 312.101 49.1484C328.813 49.1484 335.974 54.6561 335.974 64.5942C335.974 74.5323 328.76 80.1221 312.101 80.1221C295.443 80.1221 288.229 74.6144 288.229 64.5942ZM326.21 64.5942C326.21 58.4836 322.299 55.6442 312.101 55.6442C301.904 55.6442 297.993 58.4408 297.993 64.5942C297.993 70.7476 301.954 73.6263 312.101 73.6263C322.249 73.6263 326.21 70.744 326.21 64.5942Z" stroke="white" stroke-miterlimit="10"/>
<path opacity="0.5" d="M386.6 70.9152C386.6 75.9913 382.859 79.6904 374.23 79.6904H339.505V49.5836H372.928C381.554 49.5836 384.214 53.0687 384.214 57.4991C384.214 59.6073 383.147 61.6691 381.227 63.3493C384.484 64.9224 386.6 67.4194 386.6 70.9152ZM349.265 61.4087H369.447C372.054 61.4087 374.425 61.4087 374.425 58.2696C374.425 55.1305 372.039 55.1733 369.38 55.1733H349.272L349.265 61.4087ZM376.829 70.53C376.829 67.3445 374.439 67.3445 371.851 67.3445H349.272V73.7119H371.844C374.446 73.7119 376.836 73.7119 376.836 70.53H376.829Z" stroke="white" stroke-miterlimit="10"/>
<path opacity="0.5" d="M399.571 55.7298V61.8403H429.954V67.4194H399.571V73.5299H429.954V79.6904H389.803V49.5836H429.954V55.7334L399.571 55.7298Z" stroke="white" stroke-miterlimit="10"/>
</g>
<g opacity="0.35">
<path opacity="0.35" d="M37.7078 207.727H14.9729L10.9016 211.75H0.160004L19.7481 192.844H32.9325L52.574 211.75H41.7754L37.7078 207.727ZM34.0703 204.11L26.3652 196.44L18.6068 204.11H34.0703Z" stroke="white" stroke-miterlimit="10"/>
<path opacity="0.35" d="M64.6739 196.711V200.546H95.0605V204.042H64.6739V207.876H95.0605V211.736H54.91V192.83H95.0605V196.693L64.6739 196.711Z" stroke="white" stroke-miterlimit="10"/>
<path opacity="0.35" d="M134.724 206.136L141.725 211.75H130.222L124.093 206.703H108.355V211.75H98.5878V192.844H128.43C137.056 192.844 142.973 195.573 142.973 199.786C142.973 202.868 139.826 205.137 134.724 206.136ZM108.355 202.615H125.717C128.647 202.615 133.206 202.615 133.206 199.779C133.206 196.943 128.647 196.925 125.717 196.925H108.355V202.615Z" stroke="white" stroke-miterlimit="10"/>
<path opacity="0.35" d="M145.633 202.258C145.633 195.994 152.794 192.563 169.505 192.563C186.217 192.563 193.378 196.019 193.378 202.258C193.378 208.497 186.164 212.007 169.505 212.007C152.847 212.007 145.633 208.565 145.633 202.258ZM183.614 202.258C183.614 198.423 179.703 196.64 169.505 196.64C159.308 196.64 155.382 198.413 155.382 202.258C155.382 206.104 159.343 207.93 169.491 207.93C179.639 207.93 183.614 206.136 183.614 202.258Z" stroke="white" stroke-miterlimit="10"/>
<path opacity="0.35" d="M219.861 201.623H243.95V211.75H236.736L236.302 208.783C232.718 210.727 227.022 212.021 218.936 212.021C204.937 212.021 196.365 208.565 196.365 202.301C196.365 196.037 204.937 192.577 220.565 192.577C235.758 192.577 243.353 195.52 243.95 200.221H234.023C233.479 198.794 230.876 196.654 220.565 196.654C207.867 196.654 206.132 200.139 206.132 202.408C206.132 204.677 207.91 208.269 220.565 208.269C230.005 208.269 233.806 206.214 234.023 204.784H219.861V201.623Z" stroke="white" stroke-miterlimit="10"/>
<path opacity="0.35" d="M286.817 207.673V211.75H247.751V192.844H257.515V207.67L286.817 207.673Z" stroke="white" stroke-miterlimit="10"/>
<path opacity="0.35" d="M288.229 202.258C288.229 195.994 295.39 192.563 312.101 192.563C328.813 192.563 335.974 196.033 335.974 202.258C335.974 208.483 328.76 212.007 312.101 212.007C295.443 212.007 288.229 208.565 288.229 202.258ZM326.21 202.258C326.21 198.423 322.299 196.64 312.101 196.64C301.904 196.64 297.993 198.399 297.993 202.258C297.993 206.118 301.954 207.93 312.101 207.93C322.249 207.93 326.21 206.136 326.21 202.258Z" stroke="white" stroke-miterlimit="10"/>
<path opacity="0.35" d="M386.6 206.243C386.6 209.428 382.859 211.75 374.23 211.75H339.505V192.844H372.928C381.554 192.844 384.214 195.031 384.214 197.813C384.214 199.137 383.147 200.432 381.227 201.488C384.484 202.49 386.6 204.042 386.6 206.243ZM349.265 200.275H369.447C372.054 200.275 374.425 200.275 374.425 198.302C374.425 196.33 372.039 196.358 369.38 196.358H349.272L349.265 200.275ZM376.829 205.982C376.829 203.985 374.439 203.985 371.851 203.985H349.272V207.98H371.844C374.446 207.998 376.836 207.998 376.836 206L376.829 205.982Z" stroke="white" stroke-miterlimit="10"/>
<path opacity="0.35" d="M399.571 196.711V200.546H429.954V204.042H399.571V207.876H429.954V211.736H389.803V192.83H429.954V196.693L399.571 196.711Z" stroke="white" stroke-miterlimit="10"/>
</g>
<g opacity="0.35">
<path opacity="0.35" d="M37.7078 36.1282H14.9729L10.9016 40.152H0.160004L19.7481 21.246H32.9325L52.574 40.152H41.7754L37.7078 36.1282ZM34.0703 32.5111L26.3652 24.8382L18.6068 32.5111H34.0703Z" stroke="white" stroke-miterlimit="10"/>
<path opacity="0.35" d="M64.6739 25.1093V28.944H95.0605V32.4612H64.6739V36.2959H95.0605V40.1591H54.91V21.2532H95.0605V25.1093H64.6739Z" stroke="white" stroke-miterlimit="10"/>
<path opacity="0.35" d="M134.724 34.5337L141.725 40.152H130.222L124.093 35.1009H108.355V40.152H98.5878V21.246H128.43C137.056 21.246 142.973 23.9713 142.973 28.1842C142.973 31.2662 139.826 33.5313 134.724 34.5337ZM108.355 31.0343H125.717C128.647 31.0343 133.206 31.0343 133.206 28.1806C133.206 25.3269 128.647 25.3269 125.717 25.3269H108.355V31.0343Z" stroke="white" stroke-miterlimit="10"/>
<path opacity="0.35" d="M145.633 30.6776C145.633 24.4101 152.794 20.982 169.505 20.982C186.217 20.982 193.378 24.4351 193.378 30.6776C193.378 36.9201 186.164 40.4267 169.505 40.4267C152.847 40.4267 145.633 36.9665 145.633 30.6776ZM183.614 30.6776C183.614 26.8429 179.703 25.0593 169.505 25.0593C159.308 25.0593 155.382 26.8108 155.382 30.6776C155.382 34.5444 159.343 36.3494 169.491 36.3494C179.639 36.3494 183.614 34.5337 183.614 30.6776Z" stroke="white" stroke-miterlimit="10"/>
<path opacity="0.35" d="M219.861 30.0248H243.95V40.152H236.736L236.302 37.1806C232.718 39.1247 227.022 40.4231 218.936 40.4231C204.937 40.4231 196.365 36.9665 196.365 30.699C196.365 24.4315 204.937 20.9785 220.565 20.9785C235.758 20.9785 243.353 23.9214 243.95 28.6194H234.023C233.479 27.1925 230.876 25.0522 220.565 25.0522C207.867 25.0522 206.132 28.5373 206.132 30.806C206.132 33.0747 207.91 36.6633 220.565 36.6633C230.005 36.6633 233.806 34.6122 234.023 33.1818H219.861V30.0248Z" stroke="white" stroke-miterlimit="10"/>
<path opacity="0.35" d="M286.817 36.0747V40.152H247.751V21.246H257.515V36.0712L286.817 36.0747Z" stroke="white" stroke-miterlimit="10"/>
<path opacity="0.35" d="M288.229 30.6776C288.229 24.4101 295.39 20.982 312.101 20.982C328.813 20.982 335.974 24.4351 335.974 30.6776C335.974 36.9201 328.76 40.4267 312.101 40.4267C295.443 40.4267 288.229 36.9665 288.229 30.6776ZM326.21 30.6776C326.21 26.8429 322.299 25.0593 312.101 25.0593C301.904 25.0593 297.993 26.8108 297.993 30.6776C297.993 34.5444 301.954 36.3494 312.101 36.3494C322.249 36.3494 326.21 34.5337 326.21 30.6776Z" stroke="white" stroke-miterlimit="10"/>
<path opacity="0.35" d="M386.6 34.6443C386.6 37.8298 382.859 40.152 374.23 40.152H339.505V21.246H372.928C381.554 21.246 384.214 23.4327 384.214 26.2151C384.214 27.5349 383.147 28.8334 381.227 29.8857C384.484 30.8881 386.6 32.4612 386.6 34.6443ZM349.265 28.6729H369.447C372.054 28.6729 374.425 28.6729 374.425 26.7038C374.425 24.7347 372.039 24.7597 369.38 24.7597H349.272L349.265 28.6729ZM376.829 34.3982C376.829 32.4006 374.439 32.4006 371.851 32.4006H349.272V36.3851H371.844C374.446 36.3851 376.836 36.3851 376.836 34.3982H376.829Z" stroke="white" stroke-miterlimit="10"/>
<path opacity="0.35" d="M399.571 25.1093V28.944H429.954V32.4612H399.571V36.2959H429.954V40.1591H389.803V21.2532H429.954V25.1093H399.571Z" stroke="white" stroke-miterlimit="10"/>
</g>
<g opacity="0.2">
<path opacity="0.2" d="M37.7078 230.26H14.9729L10.9016 232.786H0.160004L19.7481 220.918H32.9325L52.574 232.786H41.7754L37.7078 230.26ZM34.0703 227.988L26.3652 223.172L18.6068 227.988H34.0703Z" stroke="white" stroke-miterlimit="10"/>
<path opacity="0.2" d="M64.6739 223.344V225.752H95.0605V227.942H64.6739V230.35H95.0605V232.775H54.91V220.918H95.0605V223.344H64.6739Z" stroke="white" stroke-miterlimit="10"/>
<path opacity="0.2" d="M134.724 229.258L141.725 232.786H130.222L124.093 229.615H108.355V232.786H98.5878V220.918H128.43C137.056 220.918 142.973 222.63 142.973 225.274C142.973 227.207 139.826 228.634 134.724 229.258ZM108.355 227.057H125.717C128.647 227.057 133.206 227.057 133.206 225.274C133.206 223.49 128.647 223.49 125.717 223.49H108.355V227.057Z" stroke="white" stroke-miterlimit="10"/>
<path opacity="0.2" d="M145.633 226.836C145.633 222.912 152.794 220.75 169.505 220.75C186.217 220.75 193.378 222.919 193.378 226.836C193.378 230.753 186.164 232.954 169.505 232.954C152.847 232.954 145.633 230.796 145.633 226.836ZM183.614 226.836C183.614 224.428 179.703 223.308 169.505 223.308C159.308 223.308 155.382 224.41 155.382 226.836C155.382 229.262 159.343 230.403 169.491 230.403C179.639 230.403 183.614 229.258 183.614 226.836Z" stroke="white" stroke-miterlimit="10"/>
<path opacity="0.2" d="M219.861 226.429H243.95V232.786H236.736L236.302 230.92C232.718 232.14 227.022 232.954 218.936 232.954C204.937 232.954 196.365 230.785 196.365 226.85C196.365 222.916 204.937 220.75 220.565 220.75C235.758 220.75 243.353 222.598 243.95 225.548H234.023C233.479 224.649 230.876 223.308 220.565 223.308C207.867 223.308 206.132 225.495 206.132 226.922C206.132 228.348 207.91 230.599 220.565 230.599C230.005 230.599 233.806 229.312 234.023 228.413H219.861V226.429Z" stroke="white" stroke-miterlimit="10"/>
<path opacity="0.2" d="M286.817 230.225V232.786H247.751V220.918H257.515V230.225H286.817Z" stroke="white" stroke-miterlimit="10"/>
<path opacity="0.2" d="M288.229 226.836C288.229 222.912 295.39 220.75 312.101 220.75C328.813 220.75 335.974 222.919 335.974 226.836C335.974 230.753 328.76 232.954 312.101 232.954C295.443 232.954 288.229 230.796 288.229 226.836ZM326.21 226.836C326.21 224.428 322.299 223.308 312.101 223.308C301.904 223.308 297.993 224.41 297.993 226.836C297.993 229.262 301.954 230.403 312.101 230.403C322.249 230.403 326.21 229.258 326.21 226.836Z" stroke="white" stroke-miterlimit="10"/>
<path opacity="0.2" d="M386.6 229.326C386.6 231.327 382.859 232.786 374.23 232.786H339.505V220.918H372.928C381.554 220.918 384.214 222.291 384.214 224.039C384.214 224.867 383.147 225.684 381.227 226.344C384.484 226.972 386.6 227.942 386.6 229.326ZM349.265 225.58H369.447C372.054 225.58 374.425 225.58 374.425 224.342C374.425 223.105 372.039 223.123 369.38 223.123H349.272L349.265 225.58ZM376.829 229.176C376.829 227.92 374.439 227.92 371.851 227.92H349.272V230.417H371.844C374.446 230.439 376.836 230.439 376.836 229.176H376.829Z" stroke="white" stroke-miterlimit="10"/>
<path opacity="0.2" d="M399.571 223.344V225.752H429.954V227.942H399.571V230.35H429.954V232.775H389.803V220.918H429.954V223.344H399.571Z" stroke="white" stroke-miterlimit="10"/>
</g>
<g opacity="0.2">
<path opacity="0.2" d="M37.7078 9.55643H14.9729L10.9016 12.082H0.160004L19.7481 0.214027H32.9325L52.574 12.082H41.7754L37.7078 9.55643ZM34.0703 7.28415L26.3652 2.46848L18.6068 7.28415H34.0703Z" stroke="white" stroke-miterlimit="10"/>
<path opacity="0.2" d="M64.6739 2.6397V5.04753H95.0605V7.24847H64.6739V9.65631H95.0605V12.082H54.91V0.214027H95.0605V2.6397H64.6739Z" stroke="white" stroke-miterlimit="10"/>
<path opacity="0.2" d="M134.724 8.56119L141.725 12.0891H130.222L124.093 8.91791H108.355V12.0891H98.5878V0.214027H128.43C137.056 0.214027 142.973 1.92627 142.973 4.56953C142.973 6.50294 139.826 7.9298 134.724 8.56119ZM108.355 6.34955H125.717C128.647 6.34955 133.206 6.34955 133.206 4.56597C133.206 2.78239 128.647 2.78239 125.717 2.78239H108.355V6.34955Z" stroke="white" stroke-miterlimit="10"/>
<path opacity="0.2" d="M145.633 6.13195C145.633 2.20807 152.794 0.0463715 169.505 0.0463715C186.217 0.0463715 193.378 2.21521 193.378 6.13195C193.378 10.0487 186.164 12.2496 169.505 12.2496C152.847 12.2496 145.633 10.0808 145.633 6.13195ZM183.614 6.13195C183.614 3.72412 179.703 2.60403 169.505 2.60403C159.308 2.60403 155.382 3.70628 155.382 6.13195C155.382 8.55763 159.343 9.69912 169.491 9.69912C179.639 9.69912 183.614 8.56119 183.614 6.13195Z" stroke="white" stroke-miterlimit="10"/>
<path opacity="0.2" d="M219.861 5.7253H243.95V12.082H236.736L236.302 10.2164C232.718 11.4363 227.022 12.2496 218.936 12.2496C204.937 12.2496 196.365 10.0808 196.365 6.14622C196.365 2.21164 204.937 0.0463715 220.565 0.0463715C235.758 0.0463715 243.353 1.89416 243.95 4.84064H234.023C233.479 3.94528 230.876 2.60403 220.565 2.60403C207.867 2.60403 206.132 4.7907 206.132 6.214C206.132 7.6373 207.91 9.89531 220.565 9.89531C230.005 9.89531 233.806 8.60757 234.023 7.70864H219.861V5.7253Z" stroke="white" stroke-miterlimit="10"/>
<path opacity="0.2" d="M286.817 9.52076V12.082H247.751V0.214027H257.515V9.52076H286.817Z" stroke="white" stroke-miterlimit="10"/>
<path opacity="0.2" d="M288.229 6.13195C288.229 2.20807 295.39 0.0463715 312.101 0.0463715C328.813 0.0463715 335.974 2.21521 335.974 6.13195C335.974 10.0487 328.76 12.2496 312.101 12.2496C295.443 12.2496 288.229 10.0808 288.229 6.13195ZM326.21 6.13195C326.21 3.72412 322.299 2.60403 312.101 2.60403C301.904 2.60403 297.993 3.70628 297.993 6.13195C297.993 8.55763 301.954 9.69912 312.101 9.69912C322.249 9.69912 326.21 8.56119 326.21 6.13195Z" stroke="white" stroke-miterlimit="10"/>
<path opacity="0.2" d="M386.6 8.62183C386.6 10.623 382.859 12.082 374.23 12.082H339.505V0.214027H372.928C381.554 0.214027 384.214 1.58739 384.214 3.3353C384.214 4.16288 383.147 4.97976 381.227 5.63968C384.484 6.2675 386.6 7.24847 386.6 8.62183ZM349.265 4.87631H369.447C372.054 4.87631 374.425 4.87631 374.425 3.6385C374.425 2.4007 372.039 2.41853 369.38 2.41853H349.272L349.265 4.87631ZM376.829 8.47201C376.829 7.21637 374.439 7.21637 371.851 7.21637H349.272V9.71338H371.844C374.446 9.72409 376.836 9.72409 376.836 8.47201H376.829Z" stroke="white" stroke-miterlimit="10"/>
<path opacity="0.2" d="M399.571 2.6397V5.04753H429.954V7.24847H399.571V9.65631H429.954V12.082H389.803V0.214027H429.954V2.6397H399.571Z" stroke="white" stroke-miterlimit="10"/>
</g>
<path d="M36.2677 128.182H15.1969L11.6412 135.363H0.252441L20.0397 97.4228H31.4356L51.2228 135.363H39.8234L36.2677 128.182ZM18.845 120.784H32.6729L25.7927 106.812L18.845 120.784Z" fill="white"/>
<path d="M55.2727 135.363V97.4228H93.5565V105.513H65.7583V111.781H92.1236V119.857H65.7583V127.259H93.9405V135.349L55.2727 135.363Z" fill="white"/>
<path d="M108.65 135.363H98.4384V97.4228H124.039C126.403 97.373 128.761 97.6613 131.044 98.2789C132.76 98.743 134.356 99.5728 135.723 100.712C136.905 101.734 137.804 103.045 138.333 104.518C138.892 106.109 139.166 107.786 139.144 109.473C139.172 110.901 138.944 112.323 138.472 113.671C138.06 114.801 137.444 115.844 136.655 116.75C135.89 117.609 134.993 118.339 133.999 118.915C132.982 119.508 131.911 119.999 130.798 120.381L143.183 135.363H131.246L119.797 121.391H108.65V135.363ZM128.825 109.408C128.841 108.77 128.743 108.133 128.537 107.529C128.341 107.014 127.989 106.575 127.531 106.273C126.948 105.907 126.297 105.665 125.618 105.56C124.631 105.398 123.631 105.324 122.631 105.338H108.65V113.457H122.631C123.631 113.472 124.631 113.398 125.618 113.236C126.297 113.131 126.948 112.888 127.531 112.523C127.986 112.229 128.338 111.8 128.537 111.296C128.745 110.689 128.842 110.05 128.825 109.408Z" fill="white"/>
<path d="M194.612 116.422C194.675 119.395 194.067 122.345 192.834 125.051C191.658 127.521 189.901 129.667 187.714 131.304C185.288 133.077 182.546 134.365 179.635 135.099C172.619 136.812 165.296 136.812 158.28 135.099C155.352 134.365 152.591 133.077 150.145 131.304C147.942 129.669 146.167 127.523 144.971 125.051C143.773 122.333 143.154 119.393 143.154 116.422C143.154 113.45 143.773 110.511 144.971 107.793C146.166 105.319 147.942 103.173 150.145 101.539C152.588 99.7661 155.345 98.4767 158.269 97.7403C165.286 96.0327 172.608 96.0327 179.625 97.7403C182.535 98.4753 185.278 99.765 187.703 101.539C189.891 103.176 191.648 105.322 192.823 107.793C194.06 110.497 194.672 113.447 194.612 116.422ZM184.3 116.422C184.297 114.982 184.07 113.553 183.628 112.184C183.155 110.738 182.332 109.433 181.232 108.385C179.885 107.144 178.284 106.211 176.542 105.652C174.558 104.953 172.035 104.604 168.972 104.604C167.153 104.582 165.336 104.743 163.55 105.085C162.149 105.356 160.789 105.806 159.503 106.426C158.45 106.938 157.484 107.613 156.641 108.428C155.905 109.147 155.284 109.976 154.799 110.885C154.345 111.745 154.016 112.665 153.821 113.618C153.631 114.54 153.533 115.479 153.53 116.422C153.532 117.38 153.63 118.336 153.821 119.275C154.014 120.233 154.344 121.158 154.799 122.022C155.282 122.928 155.903 123.753 156.641 124.465C157.485 125.272 158.451 125.938 159.503 126.442C160.791 127.052 162.151 127.497 163.55 127.765C165.336 128.11 167.153 128.273 168.972 128.25C172.037 128.25 174.56 127.901 176.542 127.201C178.285 126.643 179.886 125.709 181.232 124.465C182.332 123.419 183.156 122.115 183.628 120.67C184.068 119.297 184.291 117.864 184.29 116.422H184.3Z" fill="white"/>
<path d="M225.073 96.4597C228.533 96.4386 231.987 96.7576 235.385 97.4121C238.368 97.9902 241.3 98.8073 244.153 99.8556V109.13C243.007 108.493 241.826 107.922 240.615 107.422C239.226 106.841 237.8 106.352 236.348 105.955C234.718 105.515 233.063 105.174 231.392 104.935C229.551 104.672 227.694 104.542 225.834 104.546C223.711 104.522 221.591 104.698 219.501 105.074C217.911 105.36 216.36 105.831 214.879 106.48C213.719 106.988 212.65 107.683 211.715 108.538C210.935 109.261 210.275 110.104 209.759 111.035C209.295 111.883 208.962 112.795 208.77 113.743C208.59 114.624 208.497 115.522 208.493 116.422C208.5 117.246 208.578 118.068 208.728 118.879C208.896 119.8 209.193 120.692 209.61 121.53C210.076 122.465 210.684 123.322 211.412 124.07C212.288 124.949 213.306 125.673 214.424 126.21C215.847 126.897 217.349 127.403 218.897 127.715C220.945 128.119 223.029 128.308 225.116 128.279C226.327 128.279 227.383 128.242 228.284 128.168C229.18 128.097 230.001 127.993 230.744 127.865C231.488 127.737 232.167 127.58 232.839 127.398L234.862 126.816V122.247H223.406V113.935H245.067V133.319C243.571 133.817 242.051 134.236 240.512 134.575C238.834 134.953 237.1 135.275 235.31 135.542C233.52 135.808 231.727 136.015 229.93 136.162C228.131 136.312 226.434 136.386 224.839 136.383C222.453 136.39 220.071 136.225 217.709 135.888C215.541 135.582 213.408 135.069 211.338 134.354C209.439 133.699 207.628 132.814 205.944 131.718C204.359 130.685 202.955 129.398 201.787 127.908C200.616 126.385 199.714 124.672 199.12 122.842C198.461 120.767 198.139 118.599 198.168 116.422C198.137 114.241 198.473 112.07 199.16 110.001C199.781 108.159 200.717 106.44 201.926 104.921C203.133 103.427 204.574 102.141 206.193 101.111C207.907 100.016 209.745 99.1299 211.668 98.4715C213.749 97.7618 215.892 97.2495 218.069 96.9412C220.389 96.611 222.73 96.45 225.073 96.4597Z" fill="white"/>
<path d="M249.607 135.363V97.4228H259.819V127.052H287.439V135.363H249.607Z" fill="white"/>
<path d="M340.276 116.422C340.276 119.677 339.684 122.553 338.499 125.051C337.325 127.521 335.569 129.667 333.382 131.304C330.956 133.076 328.214 134.365 325.304 135.099C318.286 136.811 310.962 136.811 303.945 135.099C301.018 134.365 298.258 133.077 295.813 131.304C293.609 129.671 291.833 127.525 290.639 125.051C289.426 122.556 288.82 119.68 288.823 116.422C288.825 113.164 289.431 110.287 290.639 107.793C291.832 105.318 293.608 103.171 295.813 101.539C298.25 99.7678 301.002 98.4785 303.92 97.7403C310.938 96.0329 318.261 96.0329 325.279 97.7403C328.189 98.476 330.932 99.7657 333.357 101.539C335.545 103.175 337.301 105.321 338.474 107.793C339.676 110.287 340.276 113.164 340.276 116.422ZM329.965 116.422C329.961 114.982 329.733 113.553 329.289 112.184C328.818 110.738 327.995 109.433 326.897 108.385C325.547 107.144 323.946 106.212 322.203 105.652C320.221 104.953 317.698 104.604 314.633 104.604C312.814 104.582 310.998 104.743 309.211 105.085C307.811 105.356 306.452 105.807 305.168 106.426C304.114 106.936 303.147 107.612 302.306 108.428C301.568 109.146 300.945 109.975 300.46 110.885C300.006 111.745 299.677 112.665 299.482 113.618C299.293 114.54 299.197 115.48 299.194 116.422C299.195 117.38 299.292 118.336 299.482 119.275C299.675 120.224 300.002 121.141 300.453 121.997C300.936 122.904 301.559 123.729 302.298 124.441C303.141 125.248 304.108 125.915 305.161 126.417C306.448 127.027 307.806 127.471 309.204 127.74C310.99 128.085 312.807 128.248 314.626 128.225C317.691 128.225 320.214 127.876 322.196 127.177C323.94 126.617 325.541 125.683 326.889 124.441C327.976 123.395 328.789 122.096 329.254 120.659C329.702 119.291 329.934 117.861 329.944 116.422H329.965Z" fill="white"/>
<path d="M388.409 124.897C388.437 126.2 388.241 127.499 387.83 128.735C387.478 129.765 386.932 130.716 386.223 131.539C385.522 132.328 384.677 132.974 383.734 133.444C382.715 133.952 381.641 134.341 380.534 134.603C379.308 134.898 378.061 135.096 376.804 135.196C375.485 135.306 374.116 135.363 372.704 135.363H343.121V97.4228H372.206C373.292 97.4228 374.38 97.4692 375.47 97.5619C376.523 97.6487 377.567 97.8193 378.592 98.072C379.551 98.3095 380.48 98.6579 381.359 99.1101C382.204 99.5436 382.96 100.133 383.588 100.847C384.249 101.609 384.755 102.492 385.078 103.448C385.459 104.605 385.641 105.818 385.615 107.036C385.615 109.505 385.009 111.461 383.798 112.904C382.586 114.348 380.678 115.31 378.073 115.79C379.675 115.877 381.261 116.159 382.795 116.632C383.972 116.991 385.062 117.593 385.995 118.398C386.819 119.142 387.443 120.083 387.809 121.134C388.224 122.344 388.428 123.617 388.409 124.897ZM375.666 108.663C375.668 108.198 375.593 107.737 375.445 107.297C375.289 106.848 375.014 106.451 374.649 106.148C374.185 105.779 373.652 105.508 373.081 105.349C372.255 105.125 371.401 105.023 370.546 105.046H353.351V112.18H370.546C371.399 112.2 372.252 112.107 373.081 111.902C373.649 111.763 374.182 111.509 374.649 111.156C375.016 110.869 375.293 110.481 375.445 110.04C375.594 109.596 375.669 109.131 375.666 108.663ZM378.034 123.709C378.067 122.995 377.922 122.284 377.611 121.64C377.295 121.097 376.812 120.67 376.235 120.424C375.464 120.105 374.646 119.914 373.813 119.86C372.823 119.768 371.637 119.721 370.258 119.721H353.351V127.74H370.244C371.62 127.74 372.804 127.697 373.799 127.605C374.634 127.551 375.452 127.354 376.221 127.023C376.797 126.771 377.279 126.341 377.597 125.796C377.916 125.149 378.066 124.431 378.034 123.709Z" fill="white"/>
<path d="M391.286 135.363V97.4228H429.954V105.513H401.789V111.781H429.972V119.857H401.789V127.259H429.972V135.349L391.286 135.363Z" fill="white"/>
</g>
<defs>
<clipPath id="clip0">
<rect width="430" height="233" fill="white"/>
</clipPath>
</defs>
</svg>
