<svg width="33" height="33" viewBox="0 0 33 33" fill="none" xmlns="http://www.w3.org/2000/svg">
<g clip-path="url(#clip0)">
<path d="M32.8305 15.723L30.2426 12.4499L30.6403 8.29587C30.6598 8.03127 30.5067 7.78418 30.261 7.68408L26.3822 6.09954L24.6447 2.30643C24.5312 2.06103 24.27 1.91917 24.0023 1.95771L19.8727 2.5695L16.4712 0.122339C16.2537 -0.0407797 15.9545 -0.0407797 15.737 0.122339L12.464 2.77139L8.3099 2.37373C8.04377 2.35507 7.79615 2.511 7.69811 2.75916L6.11357 6.63179L2.32047 8.36928C2.07507 8.48277 1.93321 8.744 1.97175 9.01166L2.58354 13.1413L0.136377 16.5428C-0.0267416 16.7603 -0.0267416 17.0595 0.136377 17.277L2.72425 20.55L2.32659 24.7041C2.30701 24.9687 2.46019 25.2158 2.7059 25.3159L6.64583 26.9004L8.38332 30.6935C8.49681 30.9389 8.75804 31.0808 9.0257 31.0423L13.1553 30.4305L16.5568 32.8776C16.7743 33.0407 17.0735 33.0407 17.291 32.8776L20.5641 30.2898L24.7181 30.6874C24.9827 30.707 25.2298 30.5538 25.3299 30.3081L26.9145 26.3682L30.7076 24.6307C30.953 24.5172 31.0948 24.256 31.0563 23.9883L30.4445 19.8587L32.8917 16.4572C33.0374 16.2262 33.0124 15.9267 32.8305 15.723ZM25.5152 14.6198C25.5057 14.6856 25.475 14.7464 25.4278 14.7931L21.1942 18.9166L22.1914 24.7163C22.2185 24.8831 22.1052 25.0402 21.9385 25.0673C21.923 25.0698 21.9073 25.0711 21.8917 25.0712C21.8425 25.0706 21.7942 25.0581 21.7509 25.0345L16.514 22.2875L11.2832 25.0651C11.1347 25.1456 10.949 25.0904 10.8685 24.9419C10.8352 24.8804 10.824 24.8095 10.8366 24.7408L11.8338 18.9166L7.60023 14.7931C7.48024 14.6742 7.47932 14.4805 7.59824 14.3605C7.64496 14.3133 7.70584 14.2826 7.77153 14.2731L13.6202 13.4227L16.2387 8.12456C16.3267 7.97253 16.5214 7.92061 16.6735 8.00871C16.7216 8.03654 16.7615 8.07654 16.7893 8.12456L19.4078 13.4227L25.2565 14.2731C25.4237 14.2974 25.5395 14.4525 25.5152 14.6198Z" fill="white"/>
</g>
<defs>
<clipPath id="clip0">
<rect width="33" height="33" fill="white"/>
</clipPath>
</defs>
</svg>
