<svg width="33" height="32" viewBox="0 0 33 32" fill="none" xmlns="http://www.w3.org/2000/svg">
<g clip-path="url(#clip0)">
<path d="M16.5 0C7.40231 0 0 7.09104 0 15.8062V30.6244C0 31.1697 0.462 31.6123 1.03125 31.6123H16.5C25.5977 31.6123 33 24.5213 33 15.8062C33 7.09104 25.5977 0 16.5 0ZM17.5312 19.7577H9.28125C8.712 19.7577 8.25 19.3151 8.25 18.7698C8.25 18.2245 8.712 17.7819 9.28125 17.7819H17.5312C18.1005 17.7819 18.5625 18.2245 18.5625 18.7698C18.5625 19.3151 18.1005 19.7577 17.5312 19.7577ZM23.7188 13.8304H9.28125C8.712 13.8304 8.25 13.3878 8.25 12.8425C8.25 12.2972 8.712 11.8546 9.28125 11.8546H23.7188C24.288 11.8546 24.75 12.2972 24.75 12.8425C24.75 13.3878 24.288 13.8304 23.7188 13.8304Z" fill="white"/>
</g>
<defs>
<clipPath id="clip0">
<rect width="33" height="31.6123" fill="white"/>
</clipPath>
</defs>
</svg>
