<?xml version="1.0" encoding="UTF-8"?>
<!DOCTYPE svg PUBLIC "-//W3C//DTD SVG 1.1//EN" "http://www.w3.org/Graphics/SVG/1.1/DTD/svg11.dtd">
<!-- Creator: CorelDRAW 2018 (64-Bit) -->
<svg xmlns="http://www.w3.org/2000/svg" xml:space="preserve" width="3392px" height="675px" version="1.1" style="shape-rendering:geometricPrecision; text-rendering:geometricPrecision; image-rendering:optimizeQuality; fill-rule:evenodd; clip-rule:evenodd"
viewBox="0 0 3392 675.07"
 xmlns:xlink="http://www.w3.org/1999/xlink">
 <defs>
  <style type="text/css">
   <![CDATA[
    .fil0 {fill:#383839;fill-rule:nonzero}
   ]]>
  </style>
 </defs>
 <g id="Слой_x0020_1">
  <metadata id="CorelCorpID_0Corel-Layer"/>
  <path class="fil0" d="M1931.02 535.67c-4.78,-1.94 -9.29,-1.89 -13.37,-0.77l0.04 -0.03c0,0 -52.03,-51.68 -65.65,-68.79 -13.61,-17.11 -50.98,-71.59 -59.01,-82.06 -8.03,-10.47 -30.73,-34.22 -30.73,-48.54 0,-14.31 22.7,-38.06 30.73,-48.53 8.03,-10.48 45.4,-64.95 59.01,-82.06 13.62,-17.11 65.65,-68.79 65.65,-68.79l-0.04 -0.04c4.08,1.12 8.59,1.17 13.37,-0.76 6.97,-2.83 12.22,-9.27 13.2,-16.73 1.81,-13.81 -9.74,-25.46 -23.52,-23.83 -7.01,0.83 -13.2,5.45 -16.32,11.78 -2.61,5.28 -2.68,10.25 -1.48,14.69 -2.6,2.66 -56.65,58.04 -65.17,66.22 -8.73,8.38 -54.12,53.42 -66.7,69.48 -12.57,16.07 -40.85,54.13 -65.99,54.48 -12.61,0.18 -37.75,0.18 -59.7,0.13 -9.14,-0.02 -16.54,-7.42 -16.55,-16.56 -0.05,-21.94 -0.05,-47.09 0.13,-59.69 0.34,-25.14 38.4,-53.43 54.47,-66 16.06,-12.57 61.1,-57.97 69.49,-66.7 8.17,-8.51 63.55,-62.57 66.21,-65.17 4.43,1.2 9.38,1.13 14.64,-1.44 6.34,-3.11 10.99,-9.3 11.83,-16.32 1.55,-12.93 -8.59,-23.91 -21.25,-23.74 -1.08,0.01 -2.17,0.11 -3.27,0.29 -7.02,1.14 -12.99,6.03 -15.81,12.56 -2.16,4.97 -2.15,9.68 -0.99,13.9l-0.03 -0.04c0,0 -51.68,52.03 -68.79,65.65 -17.11,13.61 -71.59,50.98 -82.06,59.01 -10.48,8.03 -34.23,30.73 -48.54,30.73 -14.32,0 -38.06,-22.7 -48.54,-30.73 -10.47,-8.03 -64.95,-45.4 -82.06,-59.01 -17.1,-13.62 -68.79,-65.65 -68.79,-65.65l-0.03 0.04c1.16,-4.22 1.17,-8.93 -0.99,-13.9 -2.83,-6.53 -8.78,-11.41 -15.8,-12.56 -1.09,-0.18 -2.17,-0.27 -3.23,-0.29l-0.68 0c-12.35,0.2 -22.12,11 -20.62,23.7 0.83,7.02 5.45,13.21 11.78,16.33 5.28,2.6 10.24,2.67 14.69,1.47 2.66,2.6 58.04,56.66 66.22,65.17 8.37,8.73 53.42,54.13 69.49,66.7 16.06,12.57 54.12,40.86 54.47,66 0.17,12.6 0.17,37.75 0.13,59.69 -0.02,9.14 -7.42,16.54 -16.56,16.56 -21.95,0.05 -47.09,0.05 -59.7,-0.13 -25.14,-0.35 -53.42,-38.41 -65.99,-54.48 -12.57,-16.06 -57.96,-61.1 -66.7,-69.48 -8.52,-8.18 -62.57,-63.56 -65.17,-66.22 1.2,-4.43 1.13,-9.39 -1.45,-14.66 -3.11,-6.33 -9.3,-10.96 -16.31,-11.81 -14.01,-1.68 -25.72,10.36 -23.46,24.47 1.12,7.02 5.99,12.98 12.51,15.83 4.99,2.2 9.72,2.19 13.96,1.02l-0.04 0.04c0,0 52.03,51.68 65.65,68.79 13.61,17.11 50.98,71.58 59.01,82.06 8.03,10.47 30.73,34.22 30.73,48.53 0,14.32 -22.7,38.07 -30.73,48.54 -8.03,10.47 -45.4,64.95 -59.01,82.06 -13.62,17.11 -65.65,68.79 -65.65,68.79l0.04 0.03c-4.08,-1.12 -8.59,-1.17 -13.37,0.77 -6.96,2.83 -12.22,9.26 -13.19,16.72 -1.82,13.79 9.7,25.44 23.46,23.84 7,-0.81 13.2,-5.41 16.34,-11.72 2.64,-5.29 2.72,-10.29 1.51,-14.75 2.6,-2.67 56.65,-58.04 65.17,-66.22 8.74,-8.38 54.13,-53.43 66.7,-69.49 12.57,-16.06 40.85,-54.13 65.99,-54.48 12.61,-0.17 37.75,-0.17 59.7,-0.13 9.14,0.03 16.54,7.42 16.56,16.57 0.04,21.94 0.04,47.08 -0.13,59.69 -0.35,25.14 -38.41,53.43 -54.47,66 -16.07,12.56 -61.12,57.96 -69.49,66.69 -8.18,8.52 -63.56,62.58 -66.22,65.17 -4.46,-1.2 -9.43,-1.13 -14.72,1.5 -6.32,3.13 -10.94,9.33 -11.76,16.34 -1.6,13.79 10.08,25.33 23.91,23.47 7.45,-1 13.89,-6.27 16.68,-13.25 1.9,-4.75 1.85,-9.25 0.74,-13.3l0.03 0.03c0,0 51.69,-52.02 68.79,-65.64 17.11,-13.62 71.59,-50.98 82.06,-59.02 10.48,-8.03 34.22,-30.72 48.54,-30.72 14.31,0 38.06,22.69 48.54,30.72 10.47,8.04 64.95,45.4 82.06,59.02 17.11,13.62 68.79,65.64 68.79,65.64l0.03 -0.03c-1.16,4.22 -1.17,8.93 0.99,13.89 2.82,6.53 8.78,11.42 15.8,12.57 14.12,2.3 26.19,-9.41 24.53,-23.42 -0.83,-7.02 -5.46,-13.22 -11.8,-16.33 -5.27,-2.6 -10.23,-2.66 -14.67,-1.47 -2.66,-2.59 -58.04,-56.65 -66.21,-65.17 -8.39,-8.73 -53.43,-54.13 -69.49,-66.69 -16.07,-12.57 -54.13,-40.86 -54.47,-66 -0.18,-12.61 -0.18,-37.75 -0.13,-59.69 0.01,-9.15 7.41,-16.54 16.55,-16.57 21.95,-0.04 47.09,-0.04 59.7,0.13 25.14,0.35 53.42,38.42 65.99,54.48 12.58,16.06 57.97,61.11 66.7,69.49 8.52,8.18 62.57,63.55 65.17,66.22 -1.2,4.47 -1.13,9.48 1.53,14.78 3.15,6.3 9.35,10.9 16.36,11.69 13.75,1.57 25.24,-10.06 23.43,-23.85 -0.99,-7.45 -6.24,-13.89 -13.2,-16.71z"/>
  <path class="fil0" d="M104.72 359.96l77.77 0 -38.73 -78.39 -39.04 78.39zm98.07 41.52l-118.67 0 -19.98 40.28 -64.14 0 111.39 -212.86 64.13 0 111.39 212.86 -64.14 0 -19.98 -40.28z"/>
  <polygon class="fil0" points="309.7,441.76 309.7,228.9 525.19,228.9 525.19,274.29 368.73,274.29 368.73,309.46 517.14,309.46 517.14,354.85 368.73,354.85 368.73,396.37 527.36,396.37 527.36,441.76 "/>
  <path class="fil0" d="M723.71 296.13c0,-4.12 -0.54,-7.64 -1.63,-10.53 -1.08,-2.89 -2.97,-5.24 -5.66,-7.05 -2.68,-1.8 -6.27,-3.12 -10.76,-3.95 -4.49,-0.82 -10.1,-1.24 -16.81,-1.24l-78.69 0 0 45.55 78.69 0c6.71,0 12.32,-0.42 16.81,-1.24 4.49,-0.83 8.08,-2.15 10.76,-3.95 2.69,-1.81 4.58,-4.16 5.66,-7.05 1.09,-2.89 1.63,-6.4 1.63,-10.54zm-113.55 145.63l-57.48 0 0 -212.86 144.07 0c15.5,0 28.63,1.6 39.43,4.8 10.79,3.2 19.57,7.75 26.34,13.64 6.76,5.88 11.67,12.98 14.71,21.29 3.05,8.32 4.57,17.59 4.57,27.81 0,8.99 -1.26,16.84 -3.79,23.55 -2.53,6.72 -5.95,12.47 -10.23,17.28 -4.28,4.79 -9.27,8.85 -14.95,12.16 -5.68,3.3 -11.67,6.04 -17.97,8.21l69.72 84.12 -67.24 0 -64.44 -78.39 -62.74 0 0 78.39z"/>
  <path class="fil0" d="M1035.92 335.48c0,-7.95 -1.27,-15.88 -3.8,-23.78 -2.53,-7.9 -7.02,-15 -13.48,-21.29 -6.45,-6.31 -15.26,-11.42 -26.41,-15.34 -11.15,-3.93 -25.36,-5.89 -42.6,-5.89 -11.57,0 -21.74,0.91 -30.52,2.71 -8.78,1.81 -16.37,4.31 -22.77,7.51 -6.41,3.21 -11.77,6.95 -16.11,11.23 -4.34,4.29 -7.8,8.89 -10.39,13.79 -2.58,4.91 -4.41,10.02 -5.49,15.34 -1.09,5.32 -1.63,10.56 -1.63,15.72 0,5.27 0.54,10.59 1.63,15.96 1.08,5.37 2.91,10.51 5.49,15.41 2.59,4.91 6.05,9.48 10.39,13.71 4.34,4.24 9.7,7.93 16.11,11.08 6.4,3.15 13.99,5.63 22.77,7.44 8.78,1.8 18.95,2.71 30.52,2.71 17.24,0 31.45,-1.96 42.6,-5.89 11.15,-3.92 19.96,-9.04 26.41,-15.34 6.46,-6.29 10.95,-13.39 13.48,-21.3 2.53,-7.9 3.8,-15.82 3.8,-23.78zm58.09 0c0,18.28 -3.36,34.42 -10.07,48.41 -6.71,14 -16.32,25.69 -28.81,35.09 -12.5,9.4 -27.65,16.5 -45.47,21.3 -17.82,4.81 -37.83,7.21 -60.03,7.21 -22.21,0 -42.27,-2.4 -60.18,-7.21 -17.93,-4.8 -33.19,-11.9 -45.78,-21.3 -12.61,-9.4 -22.31,-21.09 -29.13,-35.09 -6.82,-13.99 -10.22,-30.13 -10.22,-48.41 0,-18.28 3.4,-34.41 10.22,-48.41 6.82,-13.99 16.52,-25.69 29.13,-35.09 12.59,-9.39 27.85,-16.49 45.78,-21.3 17.91,-4.8 37.97,-7.2 60.18,-7.2 22.2,0 42.21,2.4 60.03,7.2 17.82,4.81 32.97,11.91 45.47,21.3 12.49,9.4 22.1,21.1 28.81,35.09 6.71,14 10.07,30.13 10.07,48.41z"/>
  <path class="fil0" d="M2240.48 223.48c20.86,0 40.25,1.78 58.17,5.34 17.92,3.57 34.36,8.13 49.34,13.71l0 52.05c-5.89,-3.3 -12.52,-6.5 -19.91,-9.6 -7.38,-3.1 -15.41,-5.83 -24.08,-8.21 -8.68,-2.37 -17.97,-4.28 -27.89,-5.73 -9.91,-1.45 -20.35,-2.17 -31.29,-2.17 -13.64,0 -25.51,0.98 -35.63,2.95 -10.13,1.95 -18.8,4.59 -26.03,7.89 -7.23,3.31 -13.17,7.16 -17.81,11.55 -4.65,4.38 -8.32,9.05 -11,14.01 -2.69,4.96 -4.55,10.02 -5.58,15.18 -1.04,5.17 -1.55,10.18 -1.55,15.03 0,4.24 0.44,8.83 1.32,13.79 0.87,4.96 2.53,9.91 4.95,14.87 2.43,4.96 5.82,9.71 10.15,14.26 4.34,4.54 9.99,8.56 16.96,12.08 6.97,3.51 15.36,6.33 25.18,8.44 9.81,2.12 21.48,3.18 35.01,3.18 6.82,0 12.75,-0.21 17.81,-0.62 5.06,-0.41 9.69,-0.99 13.87,-1.7 4.19,-0.73 8.11,-1.61 11.77,-2.64 3.67,-1.03 7.46,-2.12 11.39,-3.25l0 -25.72 -64.45 0 0 -46.63 121.92 0 0 108.75c-7.64,2.58 -16.18,4.93 -25.63,7.05 -9.45,2.12 -19.21,3.93 -29.28,5.42 -10.07,1.5 -20.17,2.66 -30.29,3.49 -10.12,0.82 -19.68,1.24 -28.66,1.24 -13.94,0 -27.32,-0.93 -40.12,-2.79 -12.81,-1.86 -24.77,-4.73 -35.87,-8.6 -11.1,-3.87 -21.22,-8.8 -30.36,-14.79 -9.14,-5.99 -16.94,-13.12 -23.39,-21.38 -6.46,-8.26 -11.47,-17.74 -15.03,-28.43 -3.56,-10.69 -5.35,-22.69 -5.35,-36.02 0,-13.21 1.87,-25.19 5.58,-35.94 3.72,-10.74 8.91,-20.24 15.57,-28.5 6.66,-8.26 14.67,-15.39 24.02,-21.38 9.34,-5.99 19.62,-10.92 30.83,-14.8 11.2,-3.87 23.18,-6.74 35.94,-8.6 12.75,-1.85 25.89,-2.78 39.42,-2.78z"/>
  <polygon class="fil0" points="2378.74,441.76 2378.74,228.9 2436.22,228.9 2436.22,395.13 2591.6,395.13 2591.6,441.76 "/>
  <path class="fil0" d="M2830.85 335.48c0,-7.95 -1.27,-15.88 -3.8,-23.78 -2.53,-7.9 -7.02,-15 -13.48,-21.29 -6.45,-6.31 -15.26,-11.42 -26.41,-15.34 -11.15,-3.93 -25.35,-5.89 -42.6,-5.89 -11.57,0 -21.75,0.91 -30.52,2.71 -8.78,1.81 -16.37,4.31 -22.77,7.51 -6.41,3.21 -11.78,6.95 -16.11,11.23 -4.34,4.29 -7.8,8.89 -10.38,13.79 -2.58,4.91 -4.42,10.02 -5.51,15.34 -1.08,5.32 -1.62,10.56 -1.62,15.72 0,5.27 0.54,10.59 1.62,15.96 1.09,5.37 2.93,10.51 5.51,15.41 2.58,4.91 6.04,9.48 10.38,13.71 4.33,4.24 9.7,7.93 16.11,11.08 6.4,3.15 13.99,5.63 22.77,7.44 8.77,1.8 18.95,2.71 30.52,2.71 17.25,0 31.45,-1.96 42.6,-5.89 11.15,-3.92 19.96,-9.04 26.41,-15.34 6.46,-6.29 10.95,-13.39 13.48,-21.3 2.53,-7.9 3.8,-15.82 3.8,-23.78zm58.09 0c0,18.28 -3.35,34.42 -10.07,48.41 -6.71,14 -16.32,25.69 -28.81,35.09 -12.5,9.4 -27.66,16.5 -45.47,21.3 -17.82,4.81 -37.83,7.21 -60.03,7.21 -22.21,0 -42.27,-2.4 -60.19,-7.21 -17.92,-4.8 -33.17,-11.9 -45.78,-21.3 -12.59,-9.4 -22.3,-21.09 -29.12,-35.09 -6.82,-13.99 -10.23,-30.13 -10.23,-48.41 0,-18.28 3.41,-34.41 10.23,-48.41 6.82,-13.99 16.53,-25.69 29.12,-35.09 12.61,-9.39 27.86,-16.49 45.78,-21.3 17.92,-4.8 37.98,-7.2 60.19,-7.2 22.2,0 42.21,2.4 60.03,7.2 17.81,4.81 32.97,11.91 45.47,21.3 12.49,9.4 22.1,21.1 28.81,35.09 6.72,14 10.07,30.13 10.07,48.41z"/>
  <path class="fil0" d="M3101.54 376.38c0,-4.85 -0.83,-8.75 -2.48,-11.7 -1.65,-2.94 -4.24,-5.21 -7.75,-6.81 -3.51,-1.6 -8.06,-2.66 -13.63,-3.17 -5.57,-0.52 -12.24,-0.78 -19.98,-0.78l-95.1 0 0 45.08 95.1 0c7.74,0 14.41,-0.26 19.98,-0.78 5.57,-0.51 10.12,-1.6 13.63,-3.25 3.51,-1.65 6.1,-3.95 7.75,-6.89 1.65,-2.94 2.48,-6.84 2.48,-11.7zm-13.32 -84.43c0,-2.68 -0.42,-5.24 -1.24,-7.67 -0.83,-2.42 -2.33,-4.57 -4.5,-6.42 -2.17,-1.87 -5.11,-3.36 -8.83,-4.5 -3.72,-1.13 -8.47,-1.71 -14.25,-1.71l-96.8 0 0 39.98 96.8 0c5.78,0 10.53,-0.52 14.25,-1.56 3.72,-1.02 6.66,-2.42 8.83,-4.18 2.17,-1.75 3.67,-3.84 4.5,-6.27 0.82,-2.43 1.24,-4.98 1.24,-7.67zm71.72 91.09c0,8.26 -1.08,15.44 -3.25,21.54 -2.17,6.09 -5.19,11.33 -9.06,15.72 -3.88,4.39 -8.52,7.95 -13.95,10.69 -5.42,2.73 -11.41,4.91 -17.97,6.51 -6.56,1.6 -13.55,2.7 -20.99,3.32 -7.43,0.63 -15.13,0.93 -23.08,0.93l-166.51 0 0 -212.85 163.72 0c6.09,0 12.21,0.26 18.35,0.78 6.15,0.51 12.01,1.47 17.59,2.86 5.58,1.39 10.77,3.33 15.57,5.81 4.8,2.48 8.99,5.74 12.54,9.76 3.57,4.03 6.36,8.89 8.37,14.56 2.01,5.68 3.02,12.4 3.02,20.14 0,13.84 -3.41,24.81 -10.22,32.92 -6.82,8.11 -17.56,13.51 -32.22,16.19 10.32,0.72 19.18,2.3 26.57,4.73 7.38,2.42 13.39,5.73 18.04,9.91 4.65,4.19 8.06,9.3 10.23,15.34 2.17,6.04 3.25,13.09 3.25,21.14z"/>
  <polygon class="fil0" points="3176.13,441.76 3176.13,228.9 3393.79,228.9 3393.79,274.29 3235.16,274.29 3235.16,309.46 3393.79,309.46 3393.79,354.85 3235.16,354.85 3235.16,396.37 3393.79,396.37 3393.79,441.76 "/>
 </g>
</svg>
