<svg width="464" height="723" viewBox="0 0 464 723" fill="none" xmlns="http://www.w3.org/2000/svg">
<g clip-path="url(#clip0)">
<path d="M115.34 173.06C116.817 175.863 117.596 178.982 117.609 182.15C117.622 185.319 116.869 188.444 115.416 191.259C113.962 194.073 111.85 196.494 109.26 198.314C106.67 200.134 103.678 201.3 100.541 201.712C94.3844 221.275 88.5689 240.95 82.9653 260.683L80.8711 268.109C80.2389 270.537 79.5887 272.901 79.0212 275.347C77.8466 280.189 76.8659 285.125 75.8745 290.068C74.8831 295.011 73.9779 299.998 73.3098 305.045C72.6417 310.092 72.2322 315.19 71.8479 320.309C71.4635 325.429 71.072 330.541 70.4649 335.632C69.8579 340.722 68.9993 345.773 68.2378 350.853C67.4763 355.933 66.6214 361.002 65.8096 366.089L63.2736 381.199C61.5997 391.25 59.8863 401.298 58.4028 411.375C58.4028 411.375 56.5744 420.164 61.183 428.96C65.7916 437.756 74.0534 441.242 74.0534 441.242C83.1736 445.746 92.4052 450.045 101.612 454.373L115.455 460.849C120.093 463.072 124.752 465.238 129.353 467.504C133.955 469.771 138.599 471.926 143.125 474.318C147.651 476.711 152.08 479.287 156.498 481.873C160.916 484.46 165.353 487.011 169.871 489.338C174.39 491.666 179.028 493.688 183.633 495.735C188.238 497.782 192.868 499.728 197.516 501.491C199.847 502.412 202.16 503.221 204.513 504.077L211.805 506.571C231.26 513.187 250.786 519.594 270.417 525.638C270.417 525.638 273.65 522.911 275.844 521.763C279.608 519.778 283.911 519.066 288.112 519.732C292.313 520.399 296.185 522.409 299.151 525.462C302.117 528.515 304.018 532.447 304.568 536.671C305.118 540.895 304.289 545.184 302.205 548.898C300.121 552.611 296.893 555.549 293.003 557.273C289.114 558.997 284.772 559.415 280.626 558.463C276.481 557.512 272.753 555.242 270.002 551.994C267.25 548.746 265.621 544.694 265.359 540.442C245.815 534.625 226.166 529.149 206.449 523.893L198.974 521.907C196.435 521.188 193.834 520.468 191.316 519.673C186.219 518.155 181.215 516.504 176.229 514.805L161.398 509.596C156.426 507.952 151.43 506.394 146.423 504.865C141.415 503.336 136.458 501.703 131.616 499.854C126.774 498.005 122.047 495.897 117.302 493.868C112.557 491.839 100.926 487.392 85.0954 481.596C53.3021 471.67 42.8923 463.903 21.0634 475.376C14.3714 479.189 11.3073 480.668 6.49036 483.435L-7.96407 491.709C-12.7918 494.454 -17.6842 497.073 -22.5658 499.721L-37.2932 507.456L-40.9822 509.387C-42.2335 509.994 -43.4421 510.685 -44.5995 511.456C-46.9127 513.021 -48.9099 515.201 -51.4711 516.277C-52.8227 516.829 -54.2678 517.116 -55.7276 517.122C-57.4273 517.159 -59.1227 516.938 -60.7565 516.468C-62.851 515.885 -64.8667 515.049 -66.7588 513.978L-68.4327 513.032C-68.9895 512.712 -69.6217 512.255 -70.2287 511.877C-71.5909 510.962 -72.8971 509.966 -74.1405 508.895L-74.1692 508.841L-81.3533 495.094L-81.3821 495.04C-81.5647 493.405 -81.6486 491.761 -81.6335 490.115C-81.6084 489.396 -81.6335 488.633 -81.5688 487.993L-81.4 486.075C-81.2052 483.907 -80.7456 481.771 -80.0315 479.715C-79.4895 478.096 -78.7059 476.569 -77.7074 475.185C-76.8705 473.988 -75.8136 472.961 -74.5931 472.16C-72.2475 470.652 -69.3271 470.253 -66.7265 469.231C-65.4365 468.717 -64.1825 468.116 -62.9728 467.432L-59.291 465.486L-44.5635 457.73C-39.6173 455.212 -34.6818 452.668 -29.6852 450.25L-14.6597 443.055C-9.63079 440.659 -6.69604 438.972 0.240219 435.626C19.4362 425.83 27.3674 408.209 31.5162 379.317C32.3244 374.183 38.7003 350.867 39.7313 345.806C40.7622 340.744 41.7069 335.653 42.9641 330.606C44.2213 325.558 45.6941 320.554 47.2746 315.557C48.8551 310.56 50.4248 305.556 51.8976 300.526L56.05 285.341C57.4868 280.272 58.9739 275.21 60.6191 270.145C61.3986 267.626 62.2894 265.069 63.1335 262.565L65.7486 255.276C72.6022 236.089 79.2032 216.831 85.5516 197.502C83.2897 195.659 81.4656 193.334 80.2115 190.697C78.9574 188.06 78.3047 185.177 78.3006 182.256C78.2965 179.335 78.9412 176.45 80.1879 173.81C81.4346 171.169 83.2521 168.84 85.5088 166.99C87.7655 165.14 90.4048 163.816 93.2355 163.113C96.0663 162.411 99.0176 162.348 101.876 162.929C104.734 163.51 107.427 164.721 109.76 166.473C112.093 168.225 114.008 170.476 115.366 173.06H115.34Z" stroke="#010101" stroke-miterlimit="10"/>
<path d="M198.303 514.798C198.303 514.798 98.6446 475.998 78.6152 467.817C58.5859 459.636 33.6319 452.902 14.6766 463.14C7.98459 466.954 4.92059 468.433 0.103635 471.199L-14.3508 479.474C-19.1785 482.215 -24.0709 484.838 -28.9525 487.482L-43.6979 495.22L-47.387 497.148L-62.4736 504.833C-62.4736 504.833 -71.4179 509.531 -71.3029 511.114" stroke="#010101" stroke-miterlimit="10"/>
<path d="M200.106 506.732C200.106 506.732 135.449 482.316 87.6744 457.55C67.6451 446.376 51.2079 439.332 36.5559 442.08" stroke="#010101" stroke-miterlimit="10"/>
<path d="M260.363 522.547L255.671 537.621" stroke="#010101" stroke-miterlimit="10"/>
<path d="M201.92 503.171L196.323 521.159" stroke="#010101" stroke-miterlimit="10"/>
<path d="M68.712 267.447C68.712 267.447 43.9627 371.625 39.3038 392.783C34.6449 413.94 26.0131 438.328 6.80275 448.121C-0.133518 451.47 -3.08978 453.157 -8.09711 455.553L-23.1227 462.748C-28.1228 465.166 -33.0548 467.709 -38.001 470.228L-52.7285 477.984L-56.4103 479.927L-71.2886 487.985C-71.2886 487.985 -80.2329 492.691 -81.4686 491.694" stroke="#010101" stroke-miterlimit="10"/>
<path d="M76.3666 270.544C76.3666 270.544 59.6923 337.697 52.8818 391.157C50.6834 414.016 47.1345 431.568 36.5524 442.087" stroke="#010101" stroke-miterlimit="10"/>
<path d="M97.6101 211.896L82.5629 207.198" stroke="#010101" stroke-miterlimit="10"/>
<path d="M80.3214 271.073L62.3613 265.464" stroke="#010101" stroke-miterlimit="10"/>
<path d="M23.391 474.182L2.53897 434.381" stroke="#010101" stroke-miterlimit="10"/>
<path d="M260.029 605.975C263.822 582.685 275.395 573.781 276.552 564.002C277.486 556.127 278.143 550.09 278.143 539.643C278.143 529.196 276.566 399.881 279.882 379.662C283.618 356.843 289.192 357.141 290.536 356.803C291.83 356.552 293.139 356.389 294.455 356.314C294.455 356.314 315.45 449.214 311.661 472.516C307.871 495.817 296.294 504.711 295.137 514.489C294.203 522.364 293.546 533.621 293.546 538.848C293.546 544.075 295.123 678.61 291.811 698.832C288.072 721.652 282.5 721.353 281.157 721.688C279.863 721.941 278.554 722.104 277.238 722.177C277.238 722.177 256.239 629.266 260.029 605.975Z" stroke="#010101" stroke-miterlimit="10"/>
<path d="M214.711 532.477C238.124 529.804 249.82 538.546 259.533 537.01C267.353 535.772 273.334 534.765 283.373 531.926C293.413 529.088 417.249 492.461 437.58 490.162C460.523 487.572 461.751 493.022 462.437 494.227C463.032 495.405 463.544 496.623 463.971 497.872C463.971 497.872 380.402 543.334 356.989 546.007C333.576 548.68 321.88 539.935 312.167 541.474C304.347 542.712 293.352 545.133 288.327 546.554C283.302 547.975 154.451 586.019 134.12 588.318C111.177 590.912 109.952 585.44 109.263 584.257C108.671 583.078 108.158 581.86 107.729 580.612C107.729 580.612 191.295 535.146 214.711 532.477Z" stroke="#010101" stroke-miterlimit="10"/>
<path d="M160.151 218.242C137.654 211.224 130.474 198.499 120.966 195.981C113.311 193.952 107.438 192.459 97.1071 190.994C86.7764 189.53 -41.2877 173.006 -60.8141 166.891C-82.8514 159.99 -81.7773 154.504 -81.921 153.126C-81.9888 151.807 -81.9672 150.485 -81.8564 149.169C-81.8564 149.169 12.9237 141.344 35.4243 148.363C57.925 155.382 65.1019 168.107 74.6209 170.625C82.2756 172.654 93.2996 174.877 98.4793 175.611C103.659 176.345 236.874 193.599 256.404 199.715C278.438 206.615 277.364 212.101 277.511 213.479C277.578 214.798 277.556 216.121 277.443 217.437C277.443 217.437 182.648 225.261 160.151 218.242Z" stroke="#010101" stroke-miterlimit="10"/>
<path d="M81.1442 252.901C81.7799 229.312 92.0568 218.937 91.8987 209.09C91.7694 201.175 91.6114 195.092 90.2105 184.738C88.8096 174.384 69.9262 46.4508 70.4973 25.9661C71.1439 2.85168 76.708 2.39838 77.9939 1.88392C79.2403 1.46276 80.5135 1.12622 81.8051 0.876602C81.8051 0.876602 115.057 90.0966 114.421 113.704C113.785 137.311 103.508 147.669 103.67 157.515C103.799 165.448 104.658 176.687 105.358 181.867C106.059 187.048 125.643 320.155 125.068 340.639C124.421 363.754 118.861 364.207 117.575 364.721C116.327 365.145 115.051 365.481 113.756 365.729C113.756 365.729 80.5084 276.494 81.1442 252.901Z" stroke="#010101" stroke-miterlimit="10"/>
</g>
<defs>
<clipPath id="clip0">
<rect width="546" height="721.351" fill="white" transform="matrix(-1 0 0 1 464 0.844299)"/>
</clipPath>
</defs>
</svg>
