<svg width="18" height="20" viewBox="0 0 18 20" fill="none" xmlns="http://www.w3.org/2000/svg">
<g clip-path="url(#clip0)">
<path d="M9 19.48C13.9706 19.48 18 15.2894 18 10.12C18 4.95062 13.9706 0.76001 9 0.76001C4.02944 0.76001 0 4.95062 0 10.12C0 15.2894 4.02944 19.48 9 19.48Z" fill="#F0F0F0"/>
<path d="M17.4402 13.3756C17.802 12.3617 18 11.2649 18 10.12C18 8.9751 17.802 7.87837 17.4402 6.86438H0.559793C0.198035 7.87837 0 8.9751 0 10.12C0 11.2649 0.198035 12.3617 0.559793 13.3756L9 14.1896L17.4402 13.3756Z" fill="#0052B4"/>
<path d="M9.00002 19.48C12.8697 19.48 16.1686 16.9399 17.4402 13.3756H0.559814C1.83145 16.9399 5.13034 19.48 9.00002 19.48Z" fill="#D80027"/>
</g>
<defs>
<clipPath id="clip0">
<rect width="18" height="18.72" fill="white" transform="translate(0 0.76001)"/>
</clipPath>
</defs>
</svg>
